<svg xmlns="http://www.w3.org/2000/svg" version="1.1" xmlns:xlink="http://www.w3.org/1999/xlink" xmlns:svgjs="http://svgjs.dev/svgjs" width="1500" height="939" viewBox="0 0 1500 939"><g transform="matrix(1,0,0,1,-0.9090909090909918,-1.514516129032188)"><svg viewBox="0 0 396 248" data-background-color="#000000" preserveAspectRatio="xMidYMid meet" height="939" width="1500" xmlns="http://www.w3.org/2000/svg" xmlns:xlink="http://www.w3.org/1999/xlink"><g id="tight-bounds" transform="matrix(1,0,0,1,0.2400000000000091,0.4000000000000057)"><svg viewBox="0 0 395.52 247.2" height="247.2" width="395.52"><rect width="395.52" height="247.20000000000005" fill="url(#3d7864dd-4ab0-4f48-9803-e3ac7f74d303)" mask="url(#be0e6a9c-8cb6-4790-9e5a-3cbfbeced6d8)" data-fill-palette-color="tertiary"></rect><g><svg></svg></g><g><svg viewBox="0 0 395.52 247.2" height="247.2" width="395.52"><g transform="matrix(1,0,0,1,75.54432000000001,98.50213714285714)"><svg viewBox="0 0 244.43135999999996 50.19572571428571" height="50.19572571428571" width="244.43135999999996"><g><svg viewBox="0 0 244.43135999999996 50.19572571428571" height="50.19572571428571" width="244.43135999999996"><g><svg viewBox="0 0 244.43135999999996 50.19572571428571" height="50.19572571428571" width="244.43135999999996"><g><svg viewBox="0 0 244.43135999999996 50.19572571428571" height="50.19572571428571" width="244.43135999999996"><g id="textblocktransform"><svg viewBox="0 0 244.43135999999996 50.19572571428571" height="50.19572571428571" width="244.43135999999996" id="textblock"><g><svg viewBox="0 0 244.43135999999996 50.19572571428571" height="50.19572571428571" width="244.43135999999996"><g transform="matrix(1,0,0,1,0,0)"><svg width="244.43135999999996" viewBox="1.8 -35 173.57999999999998 35.65" height="50.19572571428571" data-palette-color="url(#bc8e3d8f-acb7-4d64-ba64-0c7820d60936)"></svg></g></svg></g></svg></g></svg></g></svg></g></svg></g></svg></g><g><path d="M245.816 0c68.262 0 123.6 55.338 123.6 123.6 0 68.262-55.338 123.6-123.6 123.6-57.548 0-105.911-39.33-119.675-92.577l2.34 0c13.708 51.984 61.045 90.314 117.335 90.314 67.012 0 121.337-54.324 121.336-121.337 0-67.012-54.324-121.337-121.336-121.337-56.29 0-103.627 38.33-117.335 90.314l-2.34 0c13.764-53.247 62.126-92.577 119.675-92.577z" fill="url(#3d7864dd-4ab0-4f48-9803-e3ac7f74d303)" stroke="transparent" data-fill-palette-color="tertiary"></path></g></svg></g><defs></defs><mask id="91381ac8-bea1-49f4-88cb-c84b9fda00bc"><g id="SvgjsG8289"><svg viewBox="0 0 395.52 247.2" height="247.2" width="395.52"><g><svg></svg></g><g><svg viewBox="0 0 395.52 247.2" height="247.2" width="395.52"><g transform="matrix(1,0,0,1,75.54432000000001,98.50213714285714)"><svg viewBox="0 0 244.43135999999996 50.19572571428571" height="50.19572571428571" width="244.43135999999996"><g><svg viewBox="0 0 244.43135999999996 50.19572571428571" height="50.19572571428571" width="244.43135999999996"><g><svg viewBox="0 0 244.43135999999996 50.19572571428571" height="50.19572571428571" width="244.43135999999996"><g><svg viewBox="0 0 244.43135999999996 50.19572571428571" height="50.19572571428571" width="244.43135999999996"><g id="SvgjsG8288"><svg viewBox="0 0 244.43135999999996 50.19572571428571" height="50.19572571428571" width="244.43135999999996" id="SvgjsSvg8287"><g><svg viewBox="0 0 244.43135999999996 50.19572571428571" height="50.19572571428571" width="244.43135999999996"><g transform="matrix(1,0,0,1,0,0)"><svg width="244.43135999999996" viewBox="1.8 -35 173.57999999999998 35.65" height="50.19572571428571" data-palette-color="url(#bc8e3d8f-acb7-4d64-ba64-0c7820d60936)"><path d="M17.9-0.3Q14.8 0.5 11.9 0.5L11.9 0.5Q9.2 0.5 7.4-0.1L7.4-0.1Q4.45-1.1 3.13-3.18 1.8-5.25 1.8-9L1.8-9 1.8-15.4Q1.8-20.35 4.4-22.93 7-25.5 11.1-25.5L11.1-25.5Q14.35-25.5 17.8-23.9L17.8-23.9 17-21.85Q14.15-23 11.5-23L11.5-23Q8.4-23 6.5-21.23 4.6-19.45 4.6-15.7L4.6-15.7 4.6-8.45Q4.6-5 6.68-3.45 8.75-1.9 12.2-1.9L12.2-1.9Q14.45-1.9 17.3-2.55L17.3-2.55 17.9-0.3ZM40.25 0Q34.85 0.55 32.45 0.55L32.45 0.55Q27.2 0.55 24.1-1.4 21-3.35 21-8.45L21-8.45 21-12.6Q21-17.55 24.45-19.25L24.45-19.25Q26.1-20.1 28.65-20.1L28.65-20.1Q31-20.1 33.4-19.33 35.8-18.55 37.45-17.3L37.45-17.3Q37.45-20.05 35.85-21.68 34.25-23.3 29.7-23.3L29.7-23.3 29.85-25.45Q34.65-25.45 36.92-23.93 39.2-22.4 39.72-20.3 40.25-18.2 40.25-14.9L40.25-14.9 40.25 0ZM37.45-15.15Q35.4-16.1 33.07-16.8 30.75-17.5 28.8-17.5L28.8-17.5Q23.75-17.5 23.75-12.45L23.75-12.45 23.75-8.1Q23.75-4.85 26-3.38 28.25-1.9 32.4-1.9L32.4-1.9Q34.55-1.9 37.45-2.3L37.45-2.3 37.45-15.15ZM45.09 0L45.09-25.05 47.9-25.05 47.75-23.3Q50.09-25.5 53.9-25.5L53.9-25.5Q55.25-25.5 57.59-25.05L57.59-25.05 56.84-22.5Q55.25-23 53.5-23L53.5-23Q51.2-23 49.55-22.15 47.9-21.3 47.9-19.6L47.9-19.6 47.9 0 45.09 0ZM75.64 0L75.64-25.05 78.44-25.05 78.29-23.3Q80.64-25.5 84.44-25.5L84.44-25.5Q85.79-25.5 88.14-25.05L88.14-25.05 87.39-22.5Q85.79-23 84.04-23L84.04-23Q81.74-23 80.09-22.15 78.44-21.3 78.44-19.6L78.44-19.6 78.44 0 75.64 0ZM105.44-1.75Q103.64-0.6 101.34 0 99.04 0.6 96.74 0.6L96.74 0.6Q93.04 0.6 90.86-1.23 88.69-3.05 88.69-6.7L88.69-6.7 88.69-16.95Q88.69-21 91.21-23.25 93.74-25.5 97.89-25.5L97.89-25.5Q102.04-25.5 104.36-23.28 106.69-21.05 106.69-17.1L106.69-17.1 106.69-10.6 91.49-9.75 91.49-6.7Q91.49-4.3 93.04-3.1 94.59-1.9 97.09-1.9L97.09-1.9Q100.59-1.9 104.34-3.9L104.34-3.9 105.44-1.75ZM103.89-17.45Q103.89-20.55 101.94-21.83 99.99-23.1 97.84-23.1L97.84-23.1Q95.09-23.1 93.29-21.6 91.49-20.1 91.49-16.9L91.49-16.9 91.49-12.5 103.89-13.1 103.89-17.45ZM127.54 0L127.54-17.15Q127.54-20.2 125.76-21.58 123.99-22.95 121.19-22.95L121.19-22.95Q119.49-22.95 117.74-22.48 115.99-22 114.64-21.25L114.64-21.25 114.64 0 111.84 0 111.84-25.05 114.64-25.05 114.44-23.35Q115.64-24.4 117.49-24.93 119.34-25.45 121.34-25.45L121.34-25.45Q124.09-25.45 126.04-24.55L126.04-24.55Q128.04-23.65 129.16-21.85 130.29-20.05 130.29-17.3L130.29-17.3 130.29 0 127.54 0ZM141.13 0.65Q138.33-0.15 137.08-1.9 135.83-3.65 135.83-6.6L135.83-6.6 135.83-35 138.63-35 138.63-25.05 144.63-25.05 143.43-22.4 138.63-22.4 138.63-6.6Q138.63-2.6 141.93-1.5L141.93-1.5 141.13 0.65ZM166.88 0Q161.48 0.55 159.08 0.55L159.08 0.55Q153.83 0.55 150.73-1.4 147.63-3.35 147.63-8.45L147.63-8.45 147.63-12.6Q147.63-17.55 151.08-19.25L151.08-19.25Q152.73-20.1 155.28-20.1L155.28-20.1Q157.63-20.1 160.03-19.33 162.43-18.55 164.08-17.3L164.08-17.3Q164.08-20.05 162.48-21.68 160.88-23.3 156.33-23.3L156.33-23.3 156.48-25.45Q161.28-25.45 163.56-23.93 165.83-22.4 166.36-20.3 166.88-18.2 166.88-14.9L166.88-14.9 166.88 0ZM164.08-15.15Q162.03-16.1 159.71-16.8 157.38-17.5 155.43-17.5L155.43-17.5Q150.38-17.5 150.38-12.45L150.38-12.45 150.38-8.1Q150.38-4.85 152.63-3.38 154.88-1.9 159.03-1.9L159.03-1.9Q161.18-1.9 164.08-2.3L164.08-2.3 164.08-15.15ZM172.58 0L172.58-35 175.38-35 175.38 0 172.58 0Z" opacity="1" transform="matrix(1,0,0,1,0,0)" fill="white" class="wordmark-text-0" id="SvgjsPath8286"></path></svg></g></svg></g></svg></g></svg></g></svg></g></svg></g></svg></g><g><path d="M245.816 0c68.262 0 123.6 55.338 123.6 123.6 0 68.262-55.338 123.6-123.6 123.6-57.548 0-105.911-39.33-119.675-92.577l2.34 0c13.708 51.984 61.045 90.314 117.335 90.314 67.012 0 121.337-54.324 121.336-121.337 0-67.012-54.324-121.337-121.336-121.337-56.29 0-103.627 38.33-117.335 90.314l-2.34 0c13.764-53.247 62.126-92.577 119.675-92.577z" fill="black" stroke="transparent"></path></g></svg></g><defs><mask></mask></defs></svg><rect width="395.52" height="247.2" fill="black" stroke="none" visibility="hidden"></rect></g></mask><linearGradient x1="0" x2="1" y1="0.5" y2="0.5" id="bc8e3d8f-acb7-4d64-ba64-0c7820d60936"><stop stop-color="#fff72e" offset="0"></stop><stop stop-color="#deae29" offset="1"></stop></linearGradient><rect width="395.52" height="247.20000000000002" fill="url(#bc8e3d8f-acb7-4d64-ba64-0c7820d60936)" mask="url(#91381ac8-bea1-49f4-88cb-c84b9fda00bc)" data-fill-palette-color="primary"></rect><mask id="be0e6a9c-8cb6-4790-9e5a-3cbfbeced6d8"><g id="SvgjsG8312"><svg viewBox="0 0 395.52 247.2" height="247.2" width="395.52"><g><svg></svg></g><g><svg viewBox="0 0 395.52 247.2" height="247.2" width="395.52"><g transform="matrix(1,0,0,1,75.54432000000001,98.50213714285714)"><svg viewBox="0 0 244.43135999999996 50.19572571428571" height="50.19572571428571" width="244.43135999999996"><g><svg viewBox="0 0 244.43135999999996 50.19572571428571" height="50.19572571428571" width="244.43135999999996"><g><svg viewBox="0 0 244.43135999999996 50.19572571428571" height="50.19572571428571" width="244.43135999999996"><g><svg viewBox="0 0 244.43135999999996 50.19572571428571" height="50.19572571428571" width="244.43135999999996"><g id="SvgjsG8311"><svg viewBox="0 0 244.43135999999996 50.19572571428571" height="50.19572571428571" width="244.43135999999996" id="SvgjsSvg8310"><g><svg viewBox="0 0 244.43135999999996 50.19572571428571" height="50.19572571428571" width="244.43135999999996"><g transform="matrix(1,0,0,1,0,0)"><svg width="244.43135999999996" viewBox="1.8 -35 173.57999999999998 35.65" height="50.19572571428571" data-palette-color="url(#bc8e3d8f-acb7-4d64-ba64-0c7820d60936)"></svg></g></svg></g></svg></g></svg></g></svg></g></svg></g></svg></g><g><path d="M245.816 0c68.262 0 123.6 55.338 123.6 123.6 0 68.262-55.338 123.6-123.6 123.6-57.548 0-105.911-39.33-119.675-92.577l2.34 0c13.708 51.984 61.045 90.314 117.335 90.314 67.012 0 121.337-54.324 121.336-121.337 0-67.012-54.324-121.337-121.336-121.337-56.29 0-103.627 38.33-117.335 90.314l-2.34 0c13.764-53.247 62.126-92.577 119.675-92.577z" fill="white" stroke="transparent"></path></g></svg></g><defs><mask></mask></defs><mask><g id="SvgjsG8309"><svg viewBox="0 0 395.52 247.2" height="247.2" width="395.52"><g><svg></svg></g><g><svg viewBox="0 0 395.52 247.2" height="247.2" width="395.52"><g transform="matrix(1,0,0,1,75.54432000000001,98.50213714285714)"><svg viewBox="0 0 244.43135999999996 50.19572571428571" height="50.19572571428571" width="244.43135999999996"><g><svg viewBox="0 0 244.43135999999996 50.19572571428571" height="50.19572571428571" width="244.43135999999996"><g><svg viewBox="0 0 244.43135999999996 50.19572571428571" height="50.19572571428571" width="244.43135999999996"><g><svg viewBox="0 0 244.43135999999996 50.19572571428571" height="50.19572571428571" width="244.43135999999996"><g id="SvgjsG8308"><svg viewBox="0 0 244.43135999999996 50.19572571428571" height="50.19572571428571" width="244.43135999999996" id="SvgjsSvg8307"><g><svg viewBox="0 0 244.43135999999996 50.19572571428571" height="50.19572571428571" width="244.43135999999996"><g transform="matrix(1,0,0,1,0,0)"><svg width="244.43135999999996" viewBox="1.8 -35 173.57999999999998 35.65" height="50.19572571428571" data-palette-color="url(#bc8e3d8f-acb7-4d64-ba64-0c7820d60936)"><path d="M17.9-0.3Q14.8 0.5 11.9 0.5L11.9 0.5Q9.2 0.5 7.4-0.1L7.4-0.1Q4.45-1.1 3.13-3.18 1.8-5.25 1.8-9L1.8-9 1.8-15.4Q1.8-20.35 4.4-22.93 7-25.5 11.1-25.5L11.1-25.5Q14.35-25.5 17.8-23.9L17.8-23.9 17-21.85Q14.15-23 11.5-23L11.5-23Q8.4-23 6.5-21.23 4.6-19.45 4.6-15.7L4.6-15.7 4.6-8.45Q4.6-5 6.68-3.45 8.75-1.9 12.2-1.9L12.2-1.9Q14.45-1.9 17.3-2.55L17.3-2.55 17.9-0.3ZM40.25 0Q34.85 0.55 32.45 0.55L32.45 0.55Q27.2 0.55 24.1-1.4 21-3.35 21-8.45L21-8.45 21-12.6Q21-17.55 24.45-19.25L24.45-19.25Q26.1-20.1 28.65-20.1L28.65-20.1Q31-20.1 33.4-19.33 35.8-18.55 37.45-17.3L37.45-17.3Q37.45-20.05 35.85-21.68 34.25-23.3 29.7-23.3L29.7-23.3 29.85-25.45Q34.65-25.45 36.92-23.93 39.2-22.4 39.72-20.3 40.25-18.2 40.25-14.9L40.25-14.9 40.25 0ZM37.45-15.15Q35.4-16.1 33.07-16.8 30.75-17.5 28.8-17.5L28.8-17.5Q23.75-17.5 23.75-12.45L23.75-12.45 23.75-8.1Q23.75-4.85 26-3.38 28.25-1.9 32.4-1.9L32.4-1.9Q34.55-1.9 37.45-2.3L37.45-2.3 37.45-15.15ZM45.09 0L45.09-25.05 47.9-25.05 47.75-23.3Q50.09-25.5 53.9-25.5L53.9-25.5Q55.25-25.5 57.59-25.05L57.59-25.05 56.84-22.5Q55.25-23 53.5-23L53.5-23Q51.2-23 49.55-22.15 47.9-21.3 47.9-19.6L47.9-19.6 47.9 0 45.09 0ZM75.64 0L75.64-25.05 78.44-25.05 78.29-23.3Q80.64-25.5 84.44-25.5L84.44-25.5Q85.79-25.5 88.14-25.05L88.14-25.05 87.39-22.5Q85.79-23 84.04-23L84.04-23Q81.74-23 80.09-22.15 78.44-21.3 78.44-19.6L78.44-19.6 78.44 0 75.64 0ZM105.44-1.75Q103.64-0.6 101.34 0 99.04 0.6 96.74 0.6L96.74 0.6Q93.04 0.6 90.86-1.23 88.69-3.05 88.69-6.7L88.69-6.7 88.69-16.95Q88.69-21 91.21-23.25 93.74-25.5 97.89-25.5L97.89-25.5Q102.04-25.5 104.36-23.28 106.69-21.05 106.69-17.1L106.69-17.1 106.69-10.6 91.49-9.75 91.49-6.7Q91.49-4.3 93.04-3.1 94.59-1.9 97.09-1.9L97.09-1.9Q100.59-1.9 104.34-3.9L104.34-3.9 105.44-1.75ZM103.89-17.45Q103.89-20.55 101.94-21.83 99.99-23.1 97.84-23.1L97.84-23.1Q95.09-23.1 93.29-21.6 91.49-20.1 91.49-16.9L91.49-16.9 91.49-12.5 103.89-13.1 103.89-17.45ZM127.54 0L127.54-17.15Q127.54-20.2 125.76-21.58 123.99-22.95 121.19-22.95L121.19-22.95Q119.49-22.95 117.74-22.48 115.99-22 114.64-21.25L114.64-21.25 114.64 0 111.84 0 111.84-25.05 114.64-25.05 114.44-23.35Q115.64-24.4 117.49-24.93 119.34-25.45 121.34-25.45L121.34-25.45Q124.09-25.45 126.04-24.55L126.04-24.55Q128.04-23.65 129.16-21.85 130.29-20.05 130.29-17.3L130.29-17.3 130.29 0 127.54 0ZM141.13 0.65Q138.33-0.15 137.08-1.9 135.83-3.65 135.83-6.6L135.83-6.6 135.83-35 138.63-35 138.63-25.05 144.63-25.05 143.43-22.4 138.63-22.4 138.63-6.6Q138.63-2.6 141.93-1.5L141.93-1.5 141.13 0.65ZM166.88 0Q161.48 0.55 159.08 0.55L159.08 0.55Q153.83 0.55 150.73-1.4 147.63-3.35 147.63-8.45L147.63-8.45 147.63-12.6Q147.63-17.55 151.08-19.25L151.08-19.25Q152.73-20.1 155.28-20.1L155.28-20.1Q157.63-20.1 160.03-19.33 162.43-18.55 164.08-17.3L164.08-17.3Q164.08-20.05 162.48-21.68 160.88-23.3 156.33-23.3L156.33-23.3 156.48-25.45Q161.28-25.45 163.56-23.93 165.83-22.4 166.36-20.3 166.88-18.2 166.88-14.9L166.88-14.9 166.88 0ZM164.08-15.15Q162.03-16.1 159.71-16.8 157.38-17.5 155.43-17.5L155.43-17.5Q150.38-17.5 150.38-12.45L150.38-12.45 150.38-8.1Q150.38-4.85 152.63-3.38 154.88-1.9 159.03-1.9L159.03-1.9Q161.18-1.9 164.08-2.3L164.08-2.3 164.08-15.15ZM172.58 0L172.58-35 175.38-35 175.38 0 172.58 0Z" opacity="1" transform="matrix(1,0,0,1,0,0)" fill="black" class="wordmark-text-0" id="SvgjsPath8306"></path></svg></g></svg></g></svg></g></svg></g></svg></g></svg></g></svg></g><g><path d="M245.816 0c68.262 0 123.6 55.338 123.6 123.6 0 68.262-55.338 123.6-123.6 123.6-57.548 0-105.911-39.33-119.675-92.577l2.34 0c13.708 51.984 61.045 90.314 117.335 90.314 67.012 0 121.337-54.324 121.336-121.337 0-67.012-54.324-121.337-121.336-121.337-56.29 0-103.627 38.33-117.335 90.314l-2.34 0c13.764-53.247 62.126-92.577 119.675-92.577z" fill="black" stroke="transparent"></path></g></svg></g><defs><mask></mask></defs></svg><rect width="395.52" height="247.2" fill="black" stroke="none" visibility="hidden"></rect></g></mask></svg><rect width="395.52" height="247.2" fill="black" stroke="none" visibility="hidden"></rect></g></mask><linearGradient x1="0" x2="1" y1="0.5" y2="0.5" id="3d7864dd-4ab0-4f48-9803-e3ac7f74d303"><stop stop-color="#fff72e" offset="0"></stop><stop stop-color="#deae29" offset="1"></stop></linearGradient></svg><rect width="395.52" height="247.2" fill="none" stroke="none" visibility="hidden"></rect></g></svg></g></svg>